<?xml version="1.0" encoding="utf-8"?>
<!-- Generator: Adobe Illustrator 22.1.0, SVG Export Plug-In . SVG Version: 6.00 Build 0)  -->
<svg version="1.1" id="Layer_1" xmlns="http://www.w3.org/2000/svg" xmlns:xlink="http://www.w3.org/1999/xlink" x="0px" y="0px"
	 viewBox="0 0 50 50" style="enable-background:new 0 0 50 50;" xml:space="preserve">
<style type="text/css">
	.st0{opacity:0;fill:#FFFFFF;}
	.st1{fill:url(#SVGID_1_);}
	.st2{fill:url(#SVGID_2_);}
</style>
<rect class="st0" width="50" height="50"/>
<g>
	
		<radialGradient id="SVGID_1_" cx="5501.6665" cy="-65.0639" r="266.7123" gradientTransform="matrix(5.487805e-02 0 0 5.487805e-02 -276.9207 26.4634)" gradientUnits="userSpaceOnUse">
		<stop  offset="0" style="stop-color:#E63E2F"/>
		<stop  offset="1" style="stop-color:#C10A18"/>
	</radialGradient>
	<path class="st1" d="M39.3,17.9c-3,0-5.9,0-8.9,0c-1,0-2.1,0.1-3.1,0.3c-2,0.4-3.5,1.4-4.7,2.9c-2.9,3.5-5.8,7.1-8.7,10.6
		c-0.9,1.1-2,1.5-3.4,1.3c-1.1-0.1-2.2-0.5-3.3-0.9C6.9,32,7,31.9,7.1,31.7c0.4-0.5,0.8-1,1.2-1.4c1.4-1.6,2.7-3.3,4-4.9
		c2.3-2.7,4.4-5.6,6.8-8.1c1.4-1.4,2.8-2.7,4.6-3.5c1.4-0.6,2.9-0.9,4.4-1c2.6-0.2,5.3-0.1,8-0.1c2.3,0,4.5,0,6.8,0
		C42.5,14.9,41.4,16.8,39.3,17.9z"/>
	
		<radialGradient id="SVGID_2_" cx="5563.0732" cy="65.5773" r="212.184" gradientTransform="matrix(5.487805e-02 0 0 5.487805e-02 -276.9207 26.4634)" gradientUnits="userSpaceOnUse">
		<stop  offset="0" style="stop-color:#E63E2F"/>
		<stop  offset="1" style="stop-color:#C10A18"/>
	</radialGradient>
	<path class="st2" d="M14.6,37.6c-0.6-0.4-0.6-0.4-0.2-0.9c2.5-3,4.9-6,7.4-9c1.1-1.4,2.4-2.7,3.8-3.8c1.4-1.1,3-1.7,4.8-1.8
		c4-0.3,7.9-0.1,11.9-0.1c0.3,0,0.5,0.1,0.5,0.5c-0.3,1-0.7,2-1.3,2.9c-0.7,0.9-1.5,1.5-2.8,1.4c-2.1-0.1-4.2,0-6.3,0
		c-2.6,0-4.7,1-6.3,3c-1.9,2.4-3.9,4.8-5.8,7.2c-0.9,1.2-2.1,1.4-3.4,1.2c-0.4-0.1-0.7-0.1-1.1-0.2c-0.1,0-0.2-0.1-0.3-0.1
		C15.1,37.9,14.8,37.8,14.6,37.6z"/>
</g>
</svg>
