<?xml version="1.0" encoding="utf-8"?>
<!-- Generator: Adobe Illustrator 22.1.0, SVG Export Plug-In . SVG Version: 6.00 Build 0)  -->
<svg version="1.1" id="Layer_1" xmlns="http://www.w3.org/2000/svg" xmlns:xlink="http://www.w3.org/1999/xlink" x="0px" y="0px"
	 viewBox="0 0 1024 1024" style="enable-background:new 0 0 1024 1024;" xml:space="preserve">
<style type="text/css">
	.st0{fill:url(#SVGID_1_);}
	.st1{fill:url(#SVGID_2_);}
	.st2{fill:url(#SVGID_3_);}
	.st3{fill:url(#SVGID_4_);}
</style>
<rect width="1024" height="1024"/>
<g>
	<radialGradient id="SVGID_1_" cx="512" cy="465.4681" r="266.7123" gradientUnits="userSpaceOnUse">
		<stop  offset="0" style="stop-color:#E63E2F"/>
		<stop  offset="1" style="stop-color:#C10A18"/>
	</radialGradient>
	<path class="st0" d="M772.2,373.7c-53.8,0.2-107.6,0.3-161.4,0.6c-18.9,0.1-37.6,1.8-56.2,5.4c-35.7,6.9-63.9,26.4-86.5,53.7
		C414.9,497.6,362,561.9,310.2,627c-16.6,20.9-36.9,26.9-61.6,24c-20.9-2.5-40.7-9.4-60.2-17.1c-6.1-2.4-5.2-4.8-1.7-8.8
		c7.4-8.5,14.4-17.3,21.6-26c25.8-28.5,48.8-59.3,73.5-88.6c41.6-49.2,79.5-101.6,124.7-147.7c24.7-25.2,51-49,84.1-63.3
		c25.8-11.2,53.2-15.6,81-17.9c48.3-3.9,96.7-1.1,145-2.3c41.1,0.1,82.2,0.3,123.3,0.4C830.7,320.6,810.6,353.8,772.2,373.7z"/>
	<radialGradient id="SVGID_2_" cx="573.4068" cy="596.1093" r="212.184" gradientUnits="userSpaceOnUse">
		<stop  offset="0" style="stop-color:#E63E2F"/>
		<stop  offset="1" style="stop-color:#C10A18"/>
	</radialGradient>
	<path class="st1" d="M321.8,733.9c-11.7-6.6-11.4-6.4-2.9-16.7c44.8-54.5,89.5-109.2,134.2-163.8c20.7-25.2,43.3-48.6,68.6-69.3
		c25.4-20.8,54.8-31.2,86.8-33.7c72.2-5.5,144.6-1.3,216.9-2.5c6-0.1,9.1,2.1,8.6,8.4c-5.8,18.3-12.2,36.4-23.9,52
		c-12.6,16.6-27.7,27-50.3,26.3c-38-1.2-76.1,0.1-114.1-0.5c-48-0.8-85.9,17.4-115.4,55.6c-34.3,44.4-70.9,87.1-104.8,131.9
		c-17,22.4-38,25.6-62.7,22c-6.8-1-13.5-2.2-20.3-3.3c-1.5-0.6-3.1-1.1-4.6-1.7C331.9,738.8,326.5,737.7,321.8,733.9z"/>
</g>
<rect x="-1209.1" width="1024" height="1024"/>
<g>
	<radialGradient id="SVGID_3_" cx="-697.1209" cy="465.4681" r="266.7123" gradientUnits="userSpaceOnUse">
		<stop  offset="0" style="stop-color:#E713FF"/>
		<stop  offset="0.1767" style="stop-color:#E013FF"/>
		<stop  offset="0.4297" style="stop-color:#CD13FE"/>
		<stop  offset="0.7273" style="stop-color:#AF13FE"/>
		<stop  offset="1" style="stop-color:#8C13FD"/>
	</radialGradient>
	<path class="st2" d="M-437,373.7c-53.8,0.2-107.6,0.3-161.4,0.6c-18.9,0.1-37.6,1.8-56.2,5.4c-35.7,6.9-63.9,26.4-86.5,53.7
		c-53.1,64.1-106,128.5-157.9,193.6c-16.6,20.9-36.9,26.9-61.6,24c-20.9-2.5-40.7-9.4-60.2-17.1c-6.1-2.4-5.2-4.8-1.7-8.8
		c7.4-8.5,14.4-17.3,21.6-26c25.8-28.5,48.8-59.3,73.5-88.6c41.6-49.2,79.5-101.6,124.7-147.7c24.7-25.2,51-49,84.1-63.3
		c25.8-11.2,53.2-15.6,81-17.9c48.3-3.9,96.7-1.1,145-2.3c41.1,0.1,82.2,0.3,123.3,0.4C-378.4,320.6-398.5,353.8-437,373.7z"/>
	<radialGradient id="SVGID_4_" cx="-635.7141" cy="596.1093" r="212.184" gradientUnits="userSpaceOnUse">
		<stop  offset="0" style="stop-color:#E713FF"/>
		<stop  offset="0.1767" style="stop-color:#E013FF"/>
		<stop  offset="0.4297" style="stop-color:#CD13FE"/>
		<stop  offset="0.7273" style="stop-color:#AF13FE"/>
		<stop  offset="1" style="stop-color:#8C13FD"/>
	</radialGradient>
	<path class="st3" d="M-887.3,733.9c-11.7-6.6-11.4-6.4-2.9-16.7c44.8-54.5,89.5-109.2,134.2-163.8c20.7-25.2,43.3-48.6,68.6-69.3
		c25.4-20.8,54.8-31.2,86.8-33.7c72.2-5.5,144.6-1.3,216.9-2.5c6-0.1,9.1,2.1,8.6,8.4c-5.8,18.3-12.2,36.4-23.9,52
		c-12.6,16.6-27.7,27-50.3,26.3c-38-1.2-76.1,0.1-114.1-0.5c-48-0.8-85.9,17.4-115.4,55.6c-34.3,44.4-70.9,87.1-104.8,131.9
		c-17,22.4-38,25.6-62.7,22c-6.8-1-13.5-2.2-20.3-3.3c-1.5-0.6-3.1-1.1-4.6-1.7C-877.2,738.8-882.7,737.7-887.3,733.9z"/>
</g>
</svg>
